# Blender 4.4.0
# www.blender.org
mtllib 1.mtl
o Text
v 0.040000 0.523709 -0.235335
v 0.040000 0.523709 -0.353706
v 0.040000 0.000000 -0.353706
v 0.040000 0.000000 -0.208992
v 0.040000 0.343168 -0.208992
v 0.040000 0.338790 -0.203154
v 0.040000 0.334553 -0.197347
v 0.040000 0.330458 -0.191572
v 0.040000 0.326504 -0.185829
v 0.040000 0.322691 -0.180118
v 0.040000 0.319020 -0.174438
v 0.040000 0.315491 -0.168790
v 0.040000 0.312102 -0.163174
v 0.040000 0.308856 -0.157589
v 0.040000 0.305751 -0.152036
v 0.040000 0.302787 -0.146515
v 0.040000 0.299965 -0.141026
v 0.040000 0.297223 -0.135436
v 0.040000 0.294501 -0.129615
v 0.040000 0.291798 -0.123562
v 0.040000 0.289115 -0.117277
v 0.040000 0.286452 -0.110761
v 0.040000 0.283808 -0.104013
v 0.040000 0.281183 -0.097033
v 0.040000 0.278578 -0.089822
v 0.040000 0.275992 -0.082378
v 0.040000 0.273426 -0.074703
v 0.040000 0.270880 -0.066797
v 0.040000 0.268353 -0.058658
v 0.040000 0.385669 -0.058658
v 0.040000 0.389657 -0.070608
v 0.040000 0.393777 -0.082104
v 0.040000 0.398029 -0.093146
v 0.040000 0.402412 -0.103735
v 0.040000 0.406927 -0.113870
v 0.040000 0.411574 -0.123551
v 0.040000 0.416352 -0.132779
v 0.040000 0.421262 -0.141553
v 0.040000 0.426304 -0.149873
v 0.040000 0.431478 -0.157739
v 0.040000 0.436783 -0.165152
v 0.040000 0.442220 -0.172111
v 0.040000 0.447830 -0.178721
v 0.040000 0.453655 -0.185088
v 0.040000 0.459694 -0.191210
v 0.040000 0.465949 -0.197089
v 0.040000 0.472417 -0.202723
v 0.040000 0.479101 -0.208114
v 0.040000 0.485999 -0.213261
v 0.040000 0.493112 -0.218163
v 0.040000 0.500439 -0.222822
v 0.040000 0.507981 -0.227237
v 0.040000 0.515738 -0.231408
v -0.040000 0.523709 -0.235335
v -0.040000 0.523709 -0.353706
v -0.040000 0.000000 -0.353706
v -0.040000 0.000000 -0.208992
v -0.040000 0.343168 -0.208992
v -0.040000 0.338790 -0.203154
v -0.040000 0.334553 -0.197347
v -0.040000 0.330458 -0.191572
v -0.040000 0.326504 -0.185829
v -0.040000 0.322691 -0.180118
v -0.040000 0.319020 -0.174438
v -0.040000 0.315491 -0.168790
v -0.040000 0.312102 -0.163174
v -0.040000 0.308856 -0.157589
v -0.040000 0.305751 -0.152036
v -0.040000 0.302787 -0.146515
v -0.040000 0.299965 -0.141026
v -0.040000 0.297223 -0.135436
v -0.040000 0.294501 -0.129615
v -0.040000 0.291798 -0.123562
v -0.040000 0.289115 -0.117277
v -0.040000 0.286452 -0.110761
v -0.040000 0.283808 -0.104013
v -0.040000 0.281183 -0.097033
v -0.040000 0.278578 -0.089822
v -0.040000 0.275992 -0.082378
v -0.040000 0.273426 -0.074703
v -0.040000 0.270880 -0.066797
v -0.040000 0.268353 -0.058658
v -0.040000 0.385669 -0.058658
v -0.040000 0.389657 -0.070608
v -0.040000 0.393777 -0.082104
v -0.040000 0.398029 -0.093146
v -0.040000 0.402412 -0.103735
v -0.040000 0.406927 -0.113870
v -0.040000 0.411574 -0.123551
v -0.040000 0.416352 -0.132779
v -0.040000 0.421262 -0.141553
v -0.040000 0.426304 -0.149873
v -0.040000 0.431478 -0.157739
v -0.040000 0.436783 -0.165152
v -0.040000 0.442220 -0.172111
v -0.040000 0.447830 -0.178721
v -0.040000 0.453655 -0.185088
v -0.040000 0.459694 -0.191210
v -0.040000 0.465949 -0.197089
v -0.040000 0.472417 -0.202723
v -0.040000 0.479101 -0.208114
v -0.040000 0.485999 -0.213261
v -0.040000 0.493112 -0.218163
v -0.040000 0.500439 -0.222822
v -0.040000 0.507981 -0.227237
v -0.040000 0.515738 -0.231408
v -0.040000 0.523709 -0.235335
v 0.040000 0.523709 -0.235335
v -0.040000 0.523709 -0.353706
v 0.040000 0.523709 -0.353706
v -0.040000 0.000000 -0.353706
v 0.040000 0.000000 -0.353706
v -0.040000 0.000000 -0.208992
v 0.040000 0.000000 -0.208992
v -0.040000 0.343168 -0.208992
v 0.040000 0.343168 -0.208992
v -0.040000 0.338790 -0.203154
v 0.040000 0.338790 -0.203154
v -0.040000 0.334553 -0.197347
v 0.040000 0.334553 -0.197347
v -0.040000 0.330458 -0.191572
v 0.040000 0.330458 -0.191572
v -0.040000 0.326504 -0.185829
v 0.040000 0.326504 -0.185829
v -0.040000 0.322691 -0.180118
v 0.040000 0.322691 -0.180118
v -0.040000 0.319020 -0.174438
v 0.040000 0.319020 -0.174438
v -0.040000 0.315491 -0.168790
v 0.040000 0.315491 -0.168790
v -0.040000 0.312102 -0.163174
v 0.040000 0.312102 -0.163174
v -0.040000 0.308856 -0.157589
v 0.040000 0.308856 -0.157589
v -0.040000 0.305751 -0.152036
v 0.040000 0.305751 -0.152036
v -0.040000 0.302787 -0.146515
v 0.040000 0.302787 -0.146515
v -0.040000 0.299965 -0.141026
v 0.040000 0.299965 -0.141026
v -0.040000 0.297223 -0.135436
v 0.040000 0.297223 -0.135436
v -0.040000 0.294501 -0.129615
v 0.040000 0.294501 -0.129615
v -0.040000 0.291798 -0.123562
v 0.040000 0.291798 -0.123562
v -0.040000 0.289115 -0.117277
v 0.040000 0.289115 -0.117277
v -0.040000 0.286452 -0.110761
v 0.040000 0.286452 -0.110761
v -0.040000 0.283808 -0.104013
v 0.040000 0.283808 -0.104013
v -0.040000 0.281183 -0.097033
v 0.040000 0.281183 -0.097033
v -0.040000 0.278578 -0.089822
v 0.040000 0.278578 -0.089822
v -0.040000 0.275992 -0.082378
v 0.040000 0.275992 -0.082378
v -0.040000 0.273426 -0.074703
v 0.040000 0.273426 -0.074703
v -0.040000 0.270880 -0.066797
v 0.040000 0.270880 -0.066797
v -0.040000 0.268353 -0.058658
v 0.040000 0.268353 -0.058658
v -0.040000 0.385669 -0.058658
v 0.040000 0.385669 -0.058658
v -0.040000 0.389657 -0.070608
v 0.040000 0.389657 -0.070608
v -0.040000 0.393777 -0.082104
v 0.040000 0.393777 -0.082104
v -0.040000 0.398029 -0.093146
v 0.040000 0.398029 -0.093146
v -0.040000 0.402412 -0.103735
v 0.040000 0.402412 -0.103735
v -0.040000 0.406927 -0.113870
v 0.040000 0.406927 -0.113870
v -0.040000 0.411574 -0.123551
v 0.040000 0.411574 -0.123551
v -0.040000 0.416352 -0.132779
v 0.040000 0.416352 -0.132779
v -0.040000 0.421262 -0.141553
v 0.040000 0.421262 -0.141553
v -0.040000 0.426304 -0.149873
v 0.040000 0.426304 -0.149873
v -0.040000 0.431478 -0.157739
v 0.040000 0.431478 -0.157739
v -0.040000 0.436783 -0.165152
v 0.040000 0.436783 -0.165152
v -0.040000 0.442220 -0.172111
v 0.040000 0.442220 -0.172111
v -0.040000 0.447830 -0.178721
v 0.040000 0.447830 -0.178721
v -0.040000 0.453655 -0.185088
v 0.040000 0.453655 -0.185088
v -0.040000 0.459694 -0.191210
v 0.040000 0.459694 -0.191210
v -0.040000 0.465949 -0.197089
v 0.040000 0.465949 -0.197089
v -0.040000 0.472417 -0.202723
v 0.040000 0.472417 -0.202723
v -0.040000 0.479101 -0.208114
v 0.040000 0.479101 -0.208114
v -0.040000 0.485999 -0.213261
v 0.040000 0.485999 -0.213261
v -0.040000 0.493112 -0.218163
v 0.040000 0.493112 -0.218163
v -0.040000 0.500439 -0.222822
v 0.040000 0.500439 -0.222822
v -0.040000 0.507981 -0.227237
v 0.040000 0.507981 -0.227237
v -0.040000 0.515738 -0.231408
v 0.040000 0.515738 -0.231408
vn 1.0000 -0.0000 -0.0000
vn -1.0000 -0.0000 -0.0000
vn -0.0000 0.8491 0.5282
vn -0.0000 0.7071 -0.7071
vn -0.0000 -0.7071 -0.7071
vn -0.0000 -0.7071 0.7071
vn -0.0000 -0.8944 0.4472
vn -0.0000 -0.8039 -0.5947
vn -0.0000 -0.8118 -0.5840
vn -0.0000 -0.8197 -0.5728
vn -0.0000 -0.8277 -0.5611
vn -0.0000 -0.8358 -0.5490
vn -0.0000 -0.8440 -0.5364
vn -0.0000 -0.8522 -0.5233
vn -0.0000 -0.8604 -0.5096
vn -0.0000 -0.8687 -0.4953
vn -0.0000 -0.8770 -0.4805
vn -0.0000 -0.8853 -0.4651
vn -0.0000 -0.8936 -0.4488
vn -0.0000 -0.9019 -0.4320
vn -0.0000 -0.9095 -0.4157
vn -0.0000 -0.9164 -0.4002
vn -0.0000 -0.9227 -0.3855
vn -0.0000 -0.9284 -0.3716
vn -0.0000 -0.9336 -0.3584
vn -0.0000 -0.9383 -0.3459
vn -0.0000 -0.9426 -0.3339
vn -0.0000 -0.9465 -0.3226
vn -0.0000 -0.9501 -0.3118
vn -0.0000 -0.9534 -0.3016
vn -0.0000 -0.8052 0.5931
vn -0.0000 0.5846 0.8113
vn -0.0000 0.9450 0.3270
vn -0.0000 0.9374 0.3484
vn -0.0000 0.9287 0.3709
vn -0.0000 0.9188 0.3947
vn -0.0000 0.9076 0.4199
vn -0.0000 0.8949 0.4463
vn -0.0000 0.8804 0.4742
vn -0.0000 0.8641 0.5034
vn -0.0000 0.8455 0.5340
vn -0.0000 0.8245 0.5659
vn -0.0000 0.8008 0.5990
vn -0.0000 0.7754 0.6315
vn -0.0000 0.7502 0.6612
vn -0.0000 0.7250 0.6888
vn -0.0000 0.6985 0.7156
vn -0.0000 0.6710 0.7415
vn -0.0000 0.6424 0.7663
vn -0.0000 0.6130 0.7901
vn -0.0000 0.5829 0.8126
vn -0.0000 0.5521 0.8338
vn -0.0000 0.5210 0.8536
vn -0.0000 0.4895 0.8720
vn -0.0000 0.4578 0.8890
vt 1.000000 0.000000
vt 0.019231 0.000000
vt 0.000000 0.000000
vt 0.038462 0.000000
vt 0.980769 0.000000
vt 0.961538 0.000000
vt 0.942308 0.000000
vt 0.923077 0.000000
vt 0.903846 0.000000
vt 0.884615 0.000000
vt 0.865385 0.000000
vt 0.846154 0.000000
vt 0.826923 0.000000
vt 0.807692 0.000000
vt 0.788462 0.000000
vt 0.769231 0.000000
vt 0.076923 0.000000
vt 0.750000 0.000000
vt 0.730769 0.000000
vt 0.711538 0.000000
vt 0.692308 0.000000
vt 0.673077 0.000000
vt 0.653846 0.000000
vt 0.634615 0.000000
vt 0.615385 0.000000
vt 0.596154 0.000000
vt 0.576923 0.000000
vt 0.557692 0.000000
vt 0.538462 0.000000
vt 0.096154 0.000000
vt 0.057692 0.000000
vt 0.115385 0.000000
vt 0.134615 0.000000
vt 0.153846 0.000000
vt 0.173077 0.000000
vt 0.192308 0.000000
vt 0.211538 0.000000
vt 0.230769 0.000000
vt 0.250000 0.000000
vt 0.269231 0.000000
vt 0.288462 0.000000
vt 0.307692 0.000000
vt 0.326923 0.000000
vt 0.346154 0.000000
vt 0.365385 0.000000
vt 0.384615 0.000000
vt 0.403846 0.000000
vt 0.423077 0.000000
vt 0.442308 0.000000
vt 0.461538 0.000000
vt 0.480769 0.000000
vt 0.500000 0.000000
vt 0.519231 0.000000
vt 0.000000 1.000000
vt 0.018868 1.000000
vt 0.018868 0.000000
vt 0.037736 1.000000
vt 0.037736 0.000000
vt 0.056604 1.000000
vt 0.056604 0.000000
vt 0.075472 1.000000
vt 0.075472 0.000000
vt 0.094340 1.000000
vt 0.094340 0.000000
vt 0.113208 1.000000
vt 0.113208 0.000000
vt 0.132075 1.000000
vt 0.132075 0.000000
vt 0.150943 1.000000
vt 0.150943 0.000000
vt 0.169811 1.000000
vt 0.169811 0.000000
vt 0.188679 1.000000
vt 0.188679 0.000000
vt 0.207547 1.000000
vt 0.207547 0.000000
vt 0.226415 1.000000
vt 0.226415 0.000000
vt 0.245283 1.000000
vt 0.245283 0.000000
vt 0.264151 1.000000
vt 0.264151 0.000000
vt 0.283019 1.000000
vt 0.283019 0.000000
vt 0.301887 1.000000
vt 0.301887 0.000000
vt 0.320755 1.000000
vt 0.320755 0.000000
vt 0.339623 1.000000
vt 0.339623 0.000000
vt 0.358491 1.000000
vt 0.358491 0.000000
vt 0.377358 1.000000
vt 0.377358 0.000000
vt 0.396226 1.000000
vt 0.396226 0.000000
vt 0.415094 1.000000
vt 0.415094 0.000000
vt 0.433962 1.000000
vt 0.433962 0.000000
vt 0.452830 1.000000
vt 0.452830 0.000000
vt 0.471698 1.000000
vt 0.471698 0.000000
vt 0.490566 1.000000
vt 0.490566 0.000000
vt 0.509434 1.000000
vt 0.509434 0.000000
vt 0.528302 1.000000
vt 0.528302 0.000000
vt 0.547170 1.000000
vt 0.547170 0.000000
vt 0.566038 1.000000
vt 0.566038 0.000000
vt 0.584906 1.000000
vt 0.584906 0.000000
vt 0.603774 1.000000
vt 0.603774 0.000000
vt 0.622642 1.000000
vt 0.622642 0.000000
vt 0.641509 1.000000
vt 0.641509 0.000000
vt 0.660377 1.000000
vt 0.660377 0.000000
vt 0.679245 1.000000
vt 0.679245 0.000000
vt 0.698113 1.000000
vt 0.698113 0.000000
vt 0.716981 1.000000
vt 0.716981 0.000000
vt 0.735849 1.000000
vt 0.735849 0.000000
vt 0.754717 1.000000
vt 0.754717 0.000000
vt 0.773585 1.000000
vt 0.773585 0.000000
vt 0.792453 1.000000
vt 0.792453 0.000000
vt 0.811321 1.000000
vt 0.811321 0.000000
vt 0.830189 1.000000
vt 0.830189 0.000000
vt 0.849057 1.000000
vt 0.849057 0.000000
vt 0.867925 1.000000
vt 0.867925 0.000000
vt 0.886792 1.000000
vt 0.886792 0.000000
vt 0.905660 1.000000
vt 0.905660 0.000000
vt 0.924528 1.000000
vt 0.924528 0.000000
vt 0.943396 1.000000
vt 0.943396 0.000000
vt 0.962264 1.000000
vt 0.962264 0.000000
vt 0.981132 1.000000
vt 0.981132 0.000000
vt 1.000000 1.000000
s 0
f 53/1/1 2/2/1 1/3/1
f 53/1/1 3/4/1 2/2/1
f 52/5/1 3/4/1 53/1/1
f 51/6/1 3/4/1 52/5/1
f 50/7/1 3/4/1 51/6/1
f 49/8/1 3/4/1 50/7/1
f 48/9/1 3/4/1 49/8/1
f 47/10/1 3/4/1 48/9/1
f 46/11/1 3/4/1 47/10/1
f 45/12/1 3/4/1 46/11/1
f 44/13/1 3/4/1 45/12/1
f 43/14/1 3/4/1 44/13/1
f 42/15/1 3/4/1 43/14/1
f 41/16/1 5/17/1 42/15/1
f 5/17/1 3/4/1 42/15/1
f 40/18/1 5/17/1 41/16/1
f 39/19/1 5/17/1 40/18/1
f 38/20/1 5/17/1 39/19/1
f 37/21/1 5/17/1 38/20/1
f 36/22/1 5/17/1 37/21/1
f 35/23/1 5/17/1 36/22/1
f 34/24/1 5/17/1 35/23/1
f 33/25/1 5/17/1 34/24/1
f 32/26/1 5/17/1 33/25/1
f 31/27/1 5/17/1 32/26/1
f 30/28/1 5/17/1 31/27/1
f 29/29/1 5/17/1 30/28/1
f 29/29/1 6/30/1 5/17/1
f 4/31/1 3/4/1 5/17/1
f 29/29/1 7/32/1 6/30/1
f 29/29/1 8/33/1 7/32/1
f 29/29/1 9/34/1 8/33/1
f 29/29/1 10/35/1 9/34/1
f 29/29/1 11/36/1 10/35/1
f 29/29/1 12/37/1 11/36/1
f 29/29/1 13/38/1 12/37/1
f 29/29/1 14/39/1 13/38/1
f 29/29/1 15/40/1 14/39/1
f 29/29/1 16/41/1 15/40/1
f 29/29/1 17/42/1 16/41/1
f 29/29/1 18/43/1 17/42/1
f 29/29/1 19/44/1 18/43/1
f 29/29/1 20/45/1 19/44/1
f 29/29/1 21/46/1 20/45/1
f 29/29/1 22/47/1 21/46/1
f 29/29/1 23/48/1 22/47/1
f 29/29/1 24/49/1 23/48/1
f 29/29/1 25/50/1 24/49/1
f 29/29/1 26/51/1 25/50/1
f 29/29/1 27/52/1 26/51/1
f 29/29/1 28/53/1 27/52/1
f 106/1/2 54/3/2 55/2/2
f 106/1/2 55/2/2 56/4/2
f 105/5/2 106/1/2 56/4/2
f 104/6/2 105/5/2 56/4/2
f 103/7/2 104/6/2 56/4/2
f 102/8/2 103/7/2 56/4/2
f 101/9/2 102/8/2 56/4/2
f 100/10/2 101/9/2 56/4/2
f 99/11/2 100/10/2 56/4/2
f 98/12/2 99/11/2 56/4/2
f 97/13/2 98/12/2 56/4/2
f 96/14/2 97/13/2 56/4/2
f 95/15/2 96/14/2 56/4/2
f 94/16/2 95/15/2 58/17/2
f 58/17/2 95/15/2 56/4/2
f 93/18/2 94/16/2 58/17/2
f 92/19/2 93/18/2 58/17/2
f 91/20/2 92/19/2 58/17/2
f 90/21/2 91/20/2 58/17/2
f 89/22/2 90/21/2 58/17/2
f 88/23/2 89/22/2 58/17/2
f 87/24/2 88/23/2 58/17/2
f 86/25/2 87/24/2 58/17/2
f 85/26/2 86/25/2 58/17/2
f 84/27/2 85/26/2 58/17/2
f 83/28/2 84/27/2 58/17/2
f 82/29/2 83/28/2 58/17/2
f 82/29/2 58/17/2 59/30/2
f 57/31/2 58/17/2 56/4/2
f 82/29/2 59/30/2 60/32/2
f 82/29/2 60/32/2 61/33/2
f 82/29/2 61/33/2 62/34/2
f 82/29/2 62/34/2 63/35/2
f 82/29/2 63/35/2 64/36/2
f 82/29/2 64/36/2 65/37/2
f 82/29/2 65/37/2 66/38/2
f 82/29/2 66/38/2 67/39/2
f 82/29/2 67/39/2 68/40/2
f 82/29/2 68/40/2 69/41/2
f 82/29/2 69/41/2 70/42/2
f 82/29/2 70/42/2 71/43/2
f 82/29/2 71/43/2 72/44/2
f 82/29/2 72/44/2 73/45/2
f 82/29/2 73/45/2 74/46/2
f 82/29/2 74/46/2 75/47/2
f 82/29/2 75/47/2 76/48/2
f 82/29/2 76/48/2 77/49/2
f 82/29/2 77/49/2 78/50/2
f 82/29/2 78/50/2 79/51/2
f 82/29/2 79/51/2 80/52/2
f 82/29/2 80/52/2 81/53/2
s 1
f 108/54/3 110/55/4 109/56/4 107/3/3
f 110/55/4 112/57/5 111/58/5 109/56/4
f 112/57/5 114/59/6 113/60/6 111/58/5
f 114/59/6 116/61/7 115/62/7 113/60/6
f 116/61/7 118/63/8 117/64/8 115/62/7
f 118/63/8 120/65/9 119/66/9 117/64/8
f 120/65/9 122/67/10 121/68/10 119/66/9
f 122/67/10 124/69/11 123/70/11 121/68/10
f 124/69/11 126/71/12 125/72/12 123/70/11
f 126/71/12 128/73/13 127/74/13 125/72/12
f 128/73/13 130/75/14 129/76/14 127/74/13
f 130/75/14 132/77/15 131/78/15 129/76/14
f 132/77/15 134/79/16 133/80/16 131/78/15
f 134/79/16 136/81/17 135/82/17 133/80/16
f 136/81/17 138/83/18 137/84/18 135/82/17
f 138/83/18 140/85/19 139/86/19 137/84/18
f 140/85/19 142/87/20 141/88/20 139/86/19
f 142/87/20 144/89/21 143/90/21 141/88/20
f 144/89/21 146/91/22 145/92/22 143/90/21
f 146/91/22 148/93/23 147/94/23 145/92/22
f 148/93/23 150/95/24 149/96/24 147/94/23
f 150/95/24 152/97/25 151/98/25 149/96/24
f 152/97/25 154/99/26 153/100/26 151/98/25
f 154/99/26 156/101/27 155/102/27 153/100/26
f 156/101/27 158/103/28 157/104/28 155/102/27
f 158/103/28 160/105/29 159/106/29 157/104/28
f 160/105/29 162/107/30 161/108/30 159/106/29
f 162/107/30 164/109/31 163/110/31 161/108/30
f 164/109/31 166/111/32 165/112/32 163/110/31
f 166/111/32 168/113/33 167/114/33 165/112/32
f 168/113/33 170/115/34 169/116/34 167/114/33
f 170/115/34 172/117/35 171/118/35 169/116/34
f 172/117/35 174/119/36 173/120/36 171/118/35
f 174/119/36 176/121/37 175/122/37 173/120/36
f 176/121/37 178/123/38 177/124/38 175/122/37
f 178/123/38 180/125/39 179/126/39 177/124/38
f 180/125/39 182/127/40 181/128/40 179/126/39
f 182/127/40 184/129/41 183/130/41 181/128/40
f 184/129/41 186/131/42 185/132/42 183/130/41
f 186/131/42 188/133/43 187/134/43 185/132/42
f 188/133/43 190/135/44 189/136/44 187/134/43
f 190/135/44 192/137/45 191/138/45 189/136/44
f 192/137/45 194/139/46 193/140/46 191/138/45
f 194/139/46 196/141/47 195/142/47 193/140/46
f 196/141/47 198/143/48 197/144/48 195/142/47
f 198/143/48 200/145/49 199/146/49 197/144/48
f 200/145/49 202/147/50 201/148/50 199/146/49
f 202/147/50 204/149/51 203/150/51 201/148/50
f 204/149/51 206/151/52 205/152/52 203/150/51
f 206/151/52 208/153/53 207/154/53 205/152/52
f 208/153/53 210/155/54 209/156/54 207/154/53
f 210/155/54 212/157/55 211/158/55 209/156/54
f 212/157/55 108/159/3 107/1/3 211/158/55
