# Blender 4.4.0
# www.blender.org
mtllib plane_bottom.mtl
o Plane
v -1.000000 0.000000 1.000000
v 1.000000 0.000000 1.000000
v -1.000000 0.000000 0.000000
v -1.000000 0.000000 0.500000
v 1.000000 0.000000 0.500000
v 1.000000 0.000000 0.000000
v -0.500000 0.000000 1.000000
v 0.000000 0.000000 1.000000
v 0.500000 0.000000 1.000000
v 0.500000 0.000000 0.500000
v 0.000000 0.000000 0.500000
v -0.500000 0.000000 0.500000
v 0.500000 0.000000 0.000000
v 0.000000 0.000000 0.000000
v -0.500000 0.000000 0.000000
vn -0.0000 1.0000 -0.0000
vt 0.750000 0.000000
vt 1.000000 0.000000
vt 1.000000 0.250000
vt 0.750000 0.250000
vt 1.000000 0.500000
vt 0.750000 0.500000
vt 0.000000 0.250000
vt 0.250000 0.250000
vt 0.250000 0.500000
vt 0.000000 0.500000
vt 0.500000 0.250000
vt 0.500000 0.500000
vt 0.000000 0.000000
vt 0.250000 0.000000
vt 0.500000 0.000000
s 0
f 9/1/1 2/2/1 5/3/1 10/4/1
f 10/4/1 5/3/1 6/5/1 13/6/1
f 4/7/1 12/8/1 15/9/1 3/10/1
f 12/8/1 11/11/1 14/12/1 15/9/1
f 11/11/1 10/4/1 13/6/1 14/12/1
f 1/13/1 7/14/1 12/8/1 4/7/1
f 7/14/1 8/15/1 11/11/1 12/8/1
f 8/15/1 9/1/1 10/4/1 11/11/1
