# Blender 4.4.0
# www.blender.org
mtllib plane_top.mtl
o Plane
v -1.000000 0.000000 -1.000000
v 1.000000 0.000000 -1.000000
v -1.000000 0.000000 -0.500000
v -1.000000 0.000000 0.000000
v 1.000000 0.000000 0.000000
v 1.000000 0.000000 -0.500000
v 0.500000 0.000000 -1.000000
v 0.000000 0.000000 -1.000000
v -0.500000 0.000000 -1.000000
v 0.500000 0.000000 0.000000
v 0.000000 0.000000 0.000000
v -0.500000 0.000000 0.000000
v 0.500000 0.000000 -0.500000
v 0.000000 0.000000 -0.500000
v -0.500000 0.000000 -0.500000
vn -0.0000 1.0000 -0.0000
vt 0.750000 0.750000
vt 1.000000 0.750000
vt 1.000000 1.000000
vt 0.750000 1.000000
vt 0.750000 0.500000
vt 1.000000 0.500000
vt 0.000000 0.500000
vt 0.250000 0.500000
vt 0.250000 0.750000
vt 0.000000 0.750000
vt 0.500000 0.500000
vt 0.500000 0.750000
vt 0.250000 1.000000
vt 0.000000 1.000000
vt 0.500000 1.000000
s 0
f 13/1/1 6/2/1 2/3/1 7/4/1
f 10/5/1 5/6/1 6/2/1 13/1/1
f 4/7/1 12/8/1 15/9/1 3/10/1
f 12/8/1 11/11/1 14/12/1 15/9/1
f 11/11/1 10/5/1 13/1/1 14/12/1
f 3/10/1 15/9/1 9/13/1 1/14/1
f 15/9/1 14/12/1 8/15/1 9/13/1
f 14/12/1 13/1/1 7/4/1 8/15/1
