# Blender 4.4.0
# www.blender.org
mtllib pyramid_cone_open.mtl
o Cone
v -0.707107 0.707107 -2.000000
v 0.707107 0.707107 -2.000000
v 0.707107 -0.707107 -2.000000
v -0.707107 -0.707107 -2.000000
v 0.000000 0.000000 0.000000
vn -0.0000 0.9428 0.3333
vn 0.9428 -0.0000 0.3333
vn -0.0000 -0.9428 0.3333
vn -0.9428 -0.0000 0.3333
vt 0.250000 0.490000
vt 0.250000 0.250000
vt 0.490000 0.250000
vt 0.250000 0.010000
vt 0.010000 0.250000
s 0
f 1/1/1 5/2/1 2/3/1
f 2/3/2 5/2/2 3/4/2
f 3/4/3 5/2/3 4/5/3
f 4/5/4 5/2/4 1/1/4
