# Blender 4.4.0
# www.blender.org
mtllib movie-poster.mtl
o Cube
v -1.000000 -1.349051 0.293174
v -1.000000 1.500000 0.293174
v -1.000000 -1.349051 -0.293174
v -1.000000 1.500000 -0.293174
v 1.000000 -1.349051 0.293174
v 1.000000 1.500000 0.293174
v 1.000000 -1.349051 -0.293174
v 1.000000 1.500000 -0.293174
v -0.849731 -1.274596 -0.293174
v -0.849731 1.274596 -0.293174
v 0.849731 -1.274596 -0.293174
v 0.849731 1.274596 -0.293174
v -1.000000 -1.801897 0.293174
v -1.000000 -1.801897 -0.293174
v 1.000000 -1.801897 0.293174
v 1.000000 -1.801897 -0.293174
v -0.860565 -1.412596 -0.293174
v 0.860565 -1.412596 -0.293174
v -0.860565 -1.738352 -0.293174
v 0.860565 -1.738352 -0.293174
v -0.849731 1.274596 -0.183278
v -0.849731 -1.274596 -0.183278
v 0.849731 -1.274596 -0.183278
v 0.849731 1.274596 -0.183278
v 0.860565 -1.412596 -0.183278
v -0.860565 -1.412596 -0.183278
v 0.860565 -1.738352 -0.183278
v -0.860565 -1.738352 -0.183278
vn -1.0000 -0.0000 -0.0000
vn -0.0000 -0.0000 -1.0000
vn 1.0000 -0.0000 -0.0000
vn -0.0000 -0.0000 1.0000
vn -0.0000 1.0000 -0.0000
vn -0.0000 -1.0000 -0.0000
vt 0.375000 0.000000
vt 0.625000 0.000000
vt 0.625000 0.250000
vt 0.375000 0.250000
vt 0.625000 0.500000
vt 0.375000 0.500000
vt 0.625000 0.750000
vt 0.375000 0.750000
vt 0.625000 1.000000
vt 0.375000 1.000000
vt 0.875000 0.500000
vt 0.875000 0.750000
vt 0.125000 0.500000
vt 0.125000 0.750000
s 0
f 1/1/1 2/2/1 4/3/1 3/4/1
f 8/5/2 7/6/2 11/6/2 12/5/2
f 7/6/3 8/5/3 6/7/3 5/8/3
f 5/8/4 6/7/4 2/9/4 1/10/4
f 5/8/4 1/10/4 13/10/4 15/8/4
f 8/5/5 4/11/5 2/12/5 6/7/5
f 17/13/6 18/6/6 25/6/6 26/13/6
f 7/6/2 3/13/2 9/13/2 11/6/2
f 4/11/2 8/5/2 12/5/2 10/11/2
f 3/4/2 4/3/2 10/3/2 9/4/2
f 14/13/6 16/6/6 15/8/6 13/14/6
f 3/13/2 7/6/2 18/6/2 17/13/2
f 1/1/1 3/4/1 14/4/1 13/1/1
f 7/6/3 5/8/3 15/8/3 16/6/3
f 18/6/1 20/6/1 27/6/1 25/6/1
f 7/6/2 16/6/2 20/6/2 18/6/2
f 14/4/2 3/4/2 17/4/2 19/4/2
f 16/6/2 14/13/2 19/13/2 20/6/2
f 22/4/2 21/3/2 24/5/2 23/6/2
f 26/13/2 25/6/2 27/6/2 28/13/2
f 12/5/1 11/6/1 23/6/1 24/5/1
f 11/6/5 9/13/5 22/13/5 23/6/5
f 19/4/3 17/4/3 26/4/3 28/4/3
f 20/6/5 19/13/5 28/13/5 27/6/5
f 10/11/6 12/5/6 24/5/6 21/11/6
f 9/4/3 10/3/3 21/3/3 22/4/3
